<svg width="332" height="338" viewBox="0 0 332 338" fill="none" xmlns="http://www.w3.org/2000/svg">
<path d="M243.84 131.38L291.5 213.69C290 216.23 287.9 219.35 286.67 221.93C272.84 244.99 256.14 266.13 237.12 284.85C218.09 303.58 196.69 319.92 173.46 333.36L165.83 337.78L158.19 333.36C134.12 319.44 112.09 302.49 92.67 283.07C77.66 268.06 64.13 251.49 52.33 233.62L100.3 246.47C104.78 251.63 109.44 256.63 114.27 261.47C129.81 277.04 147.11 290.79 165.81 302.41C183.9 291.18 200.66 277.98 215.75 263.13C230.99 248.13 244.55 231.45 256.12 213.41L217.47 146.65C201.42 146.37 188.5 133.27 188.5 117.16C188.5 100.87 201.71 87.66 218 87.66C234.29 87.66 247.49 100.87 247.49 117.16C247.49 122.31 246.16 127.16 243.84 131.38ZM165.81 186.94C182.1 186.94 195.31 200.15 195.31 216.44C195.31 232.73 182.1 245.94 165.81 245.94C152.4 245.94 141.09 237 137.5 224.76C102.04 215.46 66.52 206.24 31.16 196.63L28.1 189.78C26.77 186.9 25.48 183.93 24.22 180.91C22.87 177.68 21.68 174.71 20.65 172.01C13.96 154.43 8.75999 135.94 5.23999 116.74C1.79999 97.96 0 78.78 0 59.4L0.0599976 59.34L0.149994 46.68L7.66 42.33C27.82 30.67 49.43 21.15 72.16 14.12C87.61 9.33 103.55 5.69999 119.88 3.31999L99.68 38.18C93.39 39.67 87.21 41.35 81.11 43.24C63.5 48.69 46.6 55.82 30.6 64.44C30.87 80.56 32.44 96.2 35.2 111.25C38.33 128.34 43.05 145.04 49.19 161.15L53.11 170.92L145.28 195.25C150.59 190.12 157.83 186.95 165.81 186.94ZM132.62 102.95C134.94 107.17 136.27 112.01 136.27 117.16C136.27 133.44 123.06 146.65 106.77 146.65C90.49 146.65 77.28 133.44 77.28 117.16C77.28 101.05 90.2 87.95 106.24 87.67L157.04 0H165.81C194.07 0 221.56 3.74 247.74 10.75C274.7 17.96 300.27 28.67 323.93 42.36L331.45 46.71L331.54 59.36L331.6 59.42C331.6 84.42 328.67 108.81 323.15 132.23C319.24 148.83 313.98 164.98 307.51 180.54L287.65 146.24C289.83 139.38 291.76 132.4 293.43 125.31C298.03 105.78 300.64 85.42 300.99 64.46C281.84 54.16 261.35 45.97 239.85 40.22C218.97 34.63 197.08 31.36 174.48 30.69L132.62 102.95Z" fill="url(#paint0_linear_1_80)"/>
<defs>
<linearGradient id="paint0_linear_1_80" x1="0.0113" y1="168.892" x2="331.609" y2="168.892" gradientUnits="userSpaceOnUse">
<stop stop-color="#9D8062"/>
<stop offset="1" stop-color="#C7B494"/>
</linearGradient>
</defs>
</svg>
